<svg width="125" height="26" viewBox="0 0 125 26" fill="none" xmlns="http://www.w3.org/2000/svg">
<path fill-rule="evenodd" clip-rule="evenodd" d="M35.2126 15.5877H40.7788L38.0087 7.74471L35.2126 15.5877ZM43.6008 23.5597L41.8403 18.5804H34.177L32.4166 23.5597H28.3778L35.8339 3.30723H40.0798L47.8207 23.5597H43.6008ZM57.6587 6.60954C53.8788 6.60954 51.0051 9.75705 51.0051 13.4464C51.0051 17.1099 53.9306 20.2316 57.6587 20.2316C61.3868 20.2316 64.3123 17.1099 64.3123 13.4464C64.3381 9.75705 61.4385 6.60954 57.6587 6.60954ZM57.6587 23.8177C51.9112 23.8177 47.1735 19.2254 47.1735 13.4722C47.1735 7.66731 51.8595 3.02344 57.6587 3.02344C63.4579 3.02344 68.1439 7.66731 68.1439 13.4722C68.1439 19.2254 63.4061 23.8177 57.6587 23.8177ZM83.5481 3.30723H87.4315V23.5597H83.5481L74.1761 9.52486V23.5597H70.3186V3.30723H74.1761L83.5481 17.2905V3.30723Z" fill="white"/>
<path fill-rule="evenodd" clip-rule="evenodd" d="M100.972 12.982C102.033 13.4206 102.836 14.0397 103.431 14.8911C104.027 15.7425 104.311 16.7487 104.311 17.8838C104.311 19.664 103.638 21.1087 102.266 22.1923C100.894 23.2759 99.1076 23.8177 96.8811 23.8177C94.6805 23.8177 92.92 23.2243 91.6256 22.0633C90.3311 20.9024 89.7098 19.3544 89.7356 17.4194H93.5414C93.5155 18.4772 93.8262 19.277 94.4475 19.8446C95.0689 20.4122 95.8973 20.7218 96.9329 20.7218C97.9685 20.7218 98.8228 20.438 99.47 19.8962C100.117 19.3544 100.454 18.632 100.454 17.729C100.454 16.7745 100.117 16.0521 99.4183 15.5361C98.7193 15.0201 97.8131 14.7621 96.674 14.7621H94.9653V11.5372H96.3633C97.5542 11.5372 98.4604 11.2792 99.0817 10.789C99.703 10.2988 100.014 9.62806 100.014 8.77668C100.014 7.9769 99.7289 7.33192 99.1335 6.84173C98.538 6.35155 97.7614 6.11935 96.8034 6.11935C95.7161 6.11935 94.8876 6.42894 94.344 7.02233C93.8003 7.61571 93.5155 8.41549 93.5673 9.39587H89.7356C89.658 7.48672 90.2793 5.96456 91.5997 4.77779C92.92 3.61682 94.6805 3.02344 96.8811 3.02344C98.9264 3.02344 100.583 3.51362 101.904 4.5198C103.224 5.52597 103.871 6.84173 103.871 8.51869C103.871 9.47326 103.612 10.3504 103.12 11.1244C102.603 11.9242 101.904 12.5176 100.972 12.982ZM110.266 20.2832H113.916C116.117 20.2832 117.774 19.664 118.939 18.4256C120.104 17.1873 120.673 15.5103 120.673 13.3948C120.673 11.176 120.078 9.49906 118.861 8.31229C117.644 7.15133 116.013 6.55794 113.942 6.55794H110.292V20.2832H110.266ZM106.408 23.5597V3.30723H114.253C117.437 3.30723 120 4.23601 121.89 6.06776C123.78 7.89951 124.738 10.3762 124.738 13.4464C124.738 16.5423 123.78 18.9932 121.89 20.825C120 22.6567 117.437 23.5597 114.253 23.5597H106.408ZM0.261963 3.02344V8.75088L22.9928 17.0583L24.8569 12.0274L0.261963 3.02344Z" fill="#1950FF"/>
<path fill-rule="evenodd" clip-rule="evenodd" d="M5.36212 17.7289V23.8175L19.3424 18.4513L11.2131 15.4844L5.36212 17.7289Z" fill="white"/>
</svg>
